<?xml version="1.0" encoding="utf-8"?>
<!-- Generator: Adobe Illustrator 17.1.0, SVG Export Plug-In . SVG Version: 6.00 Build 0)  -->
<!DOCTYPE svg PUBLIC "-//W3C//DTD SVG 1.1//EN" "http://www.w3.org/Graphics/SVG/1.1/DTD/svg11.dtd">
<svg version="1.1" xmlns="http://www.w3.org/2000/svg" xmlns:xlink="http://www.w3.org/1999/xlink" x="0px" y="0px" width="25px"
	 height="25px" viewBox="0 0 25 25" enable-background="new 0 0 25 25" xml:space="preserve">
<g id="Layer_1">
	<g>
		<g>
			<circle fill-rule="evenodd" clip-rule="evenodd" fill="#CCCCCC" cx="12.5" cy="12.5" r="12.5"/>
		</g>
	</g>
</g>
<g id="Layer_2">
	<path fill-rule="evenodd" clip-rule="evenodd" fill="#EBEBEB" d="M12.5,4C13.3,4,14,4.7,14,5.5v7c0,0.8-0.7,1.5-1.5,1.5
		c-0.8,0-1.5-0.7-1.5-1.5v-7C11,4.7,11.7,4,12.5,4z"/>
	<path fill-rule="evenodd" clip-rule="evenodd" fill="#EBEBEB" d="M18.5,16.8c-0.4,0.7-1.3,1-2,0.5l-4.3-2.5c-0.7-0.4-1-1.3-0.5-2
		c0.4-0.7,1.3-1,2-0.5l4.3,2.5C18.6,15.1,18.9,16,18.5,16.8z"/>
</g>
</svg>
