<?xml version="1.0" encoding="utf-8"?>
<!-- Generator: Adobe Illustrator 17.1.0, SVG Export Plug-In . SVG Version: 6.00 Build 0)  -->
<!DOCTYPE svg PUBLIC "-//W3C//DTD SVG 1.1//EN" "http://www.w3.org/Graphics/SVG/1.1/DTD/svg11.dtd">
<svg version="1.1" id="Layer_1" xmlns="http://www.w3.org/2000/svg" xmlns:xlink="http://www.w3.org/1999/xlink" x="0px" y="0px"
	 width="25px" height="25px" viewBox="0 0 25 25" enable-background="new 0 0 25 25" xml:space="preserve">
<g id="Layer_2">
	<circle fill-rule="evenodd" clip-rule="evenodd" fill="#CCCCCC" cx="12.5" cy="12.5" r="12.5"/>
</g>
<path fill-rule="evenodd" clip-rule="evenodd" fill="#EBEBEB" d="M15,17.4c0-0.3,0.1-1.3,0.1-1.3s1-0.9,1.5-2.3
	c0.8-0.5,1.1-0.6,1.2-1.1c0,0,0.3-2.1-0.6-2.1c0,0-0.4,0.1-0.2-0.4c0.1-0.5,0.1-2.1,0-2.6c-0.1-0.6,0.1-2.2-1.1-2.4
	c-0.8-0.1-0.9,0.1-1.3,0C14.3,5,13.9,4,13.1,4l-1.5,0.2c-0.7,0-0.6,0.2-1,0.3c-0.4,0.1,0.1-0.1-1.1,0.2C8.3,4.9,7.9,6.4,7.9,7
	s-0.1,2.1,0,3c0.1,0.5-0.3,0.5-0.3,0.5c-0.7,0-0.4,2.1-0.4,2.1c0.1,0.5,0,0.8,1,1.2c0.5,1.4,1.8,2.1,1.8,2.1s0.1,0.9,0.1,1.5
	c-0.1-0.1,0.3,1.6-2.9,2.1C5,19.9,4,20.5,3.4,21c2.2,2.4,5.4,3.9,8.9,4h0.4c3.5-0.1,6.7-1.6,8.9-3.9c-0.6-0.5-1.6-1.1-3.9-1.5
	C14.5,19.1,15,17.5,15,17.4z"/>
</svg>
